<svg width="83" height="37" viewBox="0 0 83 37" fill="none" xmlns="http://www.w3.org/2000/svg">
<rect x="-3.05176e-05" width="82.305" height="36.58" rx="8" fill="#F6F6F6"/>
<path d="M19.8613 24.7V23.72C18.5033 23.51 17.4253 22.81 17.0753 21.788L18.5873 20.836C18.7833 21.326 19.7773 22.096 20.7853 22.096C21.6253 22.096 22.0733 21.858 22.0733 21.298C22.0733 20.584 20.9953 20.402 20.3513 20.192C19.6793 19.982 17.5373 19.464 17.5373 17.644C17.5373 16.286 18.5453 15.502 19.8613 15.278V14.312H21.5553V15.278C22.8013 15.502 23.8653 16.188 24.2293 16.958L22.8013 17.882C22.5493 17.42 21.6113 16.818 20.7293 16.818C19.9593 16.818 19.6093 17.112 19.6093 17.532C19.6093 18.246 20.6453 18.456 21.3173 18.68C21.9893 18.904 24.1313 19.436 24.1313 21.214C24.1313 22.67 23.1233 23.538 21.5553 23.748V24.7H19.8613ZM27.2966 24V16.552H25.3226V14.9H29.1026V24H27.2966ZM30.4418 24L30.4278 22.516L32.0098 21.144C33.2138 20.094 34.9358 18.652 34.9358 17.616C34.9358 16.958 34.5018 16.496 33.5918 16.496C32.7378 16.496 32.1358 17.07 31.9818 17.602L30.3578 16.846C30.6098 16.006 31.6878 14.76 33.5918 14.76C35.5798 14.76 36.8118 15.852 36.8118 17.504C36.8118 19.212 35.0618 20.724 34.1518 21.536L33.2278 22.348H36.8118V24H30.4418ZM40.8642 24.112C39.5202 24.112 38.2322 23.524 37.6722 22.712L38.8062 21.494C39.1562 21.914 39.9402 22.348 40.8642 22.348C41.9002 22.348 42.6422 21.83 42.6422 20.948C42.6422 20.038 41.9002 19.506 40.8642 19.506C40.3462 19.506 39.8982 19.562 39.2682 19.758L39.2822 18.456L41.6762 16.552H38.3162V14.9H44.2102V16.44L42.1662 18.204C43.3282 18.484 44.4482 19.268 44.4482 20.948C44.4482 23.202 42.6422 24.112 40.8642 24.112ZM46.4305 24.084C45.8845 24.084 45.4925 23.692 45.4925 23.146C45.4925 22.614 45.8845 22.236 46.4305 22.236C46.9625 22.236 47.3545 22.614 47.3545 23.146C47.3545 23.692 46.9625 24.084 46.4305 24.084ZM52.0672 24.112C49.7152 24.112 48.1892 22.152 48.1892 19.45C48.1892 16.748 49.7152 14.788 52.0672 14.788C54.4332 14.788 56.0012 16.748 56.0012 19.45C56.0012 22.152 54.4332 24.112 52.0672 24.112ZM52.0672 22.348C53.2012 22.348 54.1392 21.34 54.1392 19.45C54.1392 17.546 53.2012 16.594 52.0672 16.594C50.9472 16.594 49.9952 17.546 49.9952 19.45C49.9952 21.34 50.9472 22.348 52.0672 22.348ZM60.9949 24.112C58.6429 24.112 57.1169 22.152 57.1169 19.45C57.1169 16.748 58.6429 14.788 60.9949 14.788C63.3609 14.788 64.9289 16.748 64.9289 19.45C64.9289 22.152 63.3609 24.112 60.9949 24.112ZM60.9949 22.348C62.1289 22.348 63.0669 21.34 63.0669 19.45C63.0669 17.546 62.1289 16.594 60.9949 16.594C59.8749 16.594 58.9229 17.546 58.9229 19.45C58.9229 21.34 59.8749 22.348 60.9949 22.348Z" fill="#3C4242"/>
</svg>
