<svg width="83" height="37" viewBox="0 0 83 37" fill="none" xmlns="http://www.w3.org/2000/svg">
<rect x="-3.05176e-05" width="82.305" height="36.58" rx="8" fill="#F6F6F6"/>
<path d="M16.4218 24.7V23.72C15.0638 23.51 13.9858 22.81 13.6358 21.788L15.1478 20.836C15.3438 21.326 16.3378 22.096 17.3458 22.096C18.1858 22.096 18.6338 21.858 18.6338 21.298C18.6338 20.584 17.5558 20.402 16.9118 20.192C16.2398 19.982 14.0978 19.464 14.0978 17.644C14.0978 16.286 15.1058 15.502 16.4218 15.278V14.312H18.1158V15.278C19.3618 15.502 20.4258 16.188 20.7898 16.958L19.3618 17.882C19.1098 17.42 18.1718 16.818 17.2898 16.818C16.5198 16.818 16.1698 17.112 16.1698 17.532C16.1698 18.246 17.2058 18.456 17.8778 18.68C18.5498 18.904 20.6918 19.436 20.6918 21.214C20.6918 22.67 19.6838 23.538 18.1158 23.748V24.7H16.4218ZM23.8571 24V16.552H21.8831V14.9H25.6631V24H23.8571ZM27.0023 24L26.9883 22.516L28.5703 21.144C29.7743 20.094 31.4963 18.652 31.4963 17.616C31.4963 16.958 31.0623 16.496 30.1523 16.496C29.2983 16.496 28.6963 17.07 28.5423 17.602L26.9183 16.846C27.1703 16.006 28.2483 14.76 30.1523 14.76C32.1403 14.76 33.3723 15.852 33.3723 17.504C33.3723 19.212 31.6223 20.724 30.7123 21.536L29.7883 22.348H33.3723V24H27.0023ZM34.5688 24L37.9988 16.552H34.2048V14.9H40.0988V16.104L36.4588 24H34.5688ZM41.87 24.084C41.324 24.084 40.932 23.692 40.932 23.146C40.932 22.614 41.324 22.236 41.87 22.236C42.402 22.236 42.794 22.614 42.794 23.146C42.794 23.692 42.402 24.084 41.87 24.084ZM47.5066 24.112C45.1546 24.112 43.6286 22.152 43.6286 19.45C43.6286 16.748 45.1546 14.788 47.5066 14.788C49.8726 14.788 51.4406 16.748 51.4406 19.45C51.4406 22.152 49.8726 24.112 47.5066 24.112ZM47.5066 22.348C48.6406 22.348 49.5786 21.34 49.5786 19.45C49.5786 17.546 48.6406 16.594 47.5066 16.594C46.3866 16.594 45.4346 17.546 45.4346 19.45C45.4346 21.34 46.3866 22.348 47.5066 22.348ZM56.4344 24.112C54.0824 24.112 52.5564 22.152 52.5564 19.45C52.5564 16.748 54.0824 14.788 56.4344 14.788C58.8004 14.788 60.3684 16.748 60.3684 19.45C60.3684 22.152 58.8004 24.112 56.4344 24.112ZM56.4344 22.348C57.5684 22.348 58.5064 21.34 58.5064 19.45C58.5064 17.546 57.5684 16.594 56.4344 16.594C55.3144 16.594 54.3624 17.546 54.3624 19.45C54.3624 21.34 55.3144 22.348 56.4344 22.348Z" fill="#3C4242"/>
</svg>
