<svg width="83" height="37" viewBox="0 0 83 37" fill="none" xmlns="http://www.w3.org/2000/svg">
<rect x="-3.05176e-05" width="82.305" height="36.58" rx="8" fill="#F6F6F6"/>
<path d="M23.5185 24.7V23.72C22.1605 23.51 21.0825 22.81 20.7325 21.788L22.2445 20.836C22.4405 21.326 23.4345 22.096 24.4425 22.096C25.2825 22.096 25.7305 21.858 25.7305 21.298C25.7305 20.584 24.6525 20.402 24.0085 20.192C23.3365 19.982 21.1945 19.464 21.1945 17.644C21.1945 16.286 22.2025 15.502 23.5185 15.278V14.312H25.2125V15.278C26.4585 15.502 27.5225 16.188 27.8865 16.958L26.4585 17.882C26.2065 17.42 25.2685 16.818 24.3865 16.818C23.6165 16.818 23.2665 17.112 23.2665 17.532C23.2665 18.246 24.3025 18.456 24.9745 18.68C25.6465 18.904 27.7885 19.436 27.7885 21.214C27.7885 22.67 26.7805 23.538 25.2125 23.748V24.7H23.5185ZM30.9538 24V16.552H28.9798V14.9H32.7598V24H30.9538ZM37.207 24.112C35.863 24.112 34.575 23.524 34.015 22.712L35.149 21.494C35.499 21.914 36.283 22.348 37.207 22.348C38.243 22.348 38.985 21.83 38.985 20.948C38.985 20.038 38.243 19.506 37.207 19.506C36.689 19.506 36.241 19.562 35.611 19.758L35.625 18.456L38.019 16.552H34.659V14.9H40.553V16.44L38.509 18.204C39.671 18.484 40.791 19.268 40.791 20.948C40.791 23.202 38.985 24.112 37.207 24.112ZM42.7733 24.084C42.2273 24.084 41.8353 23.692 41.8353 23.146C41.8353 22.614 42.2273 22.236 42.7733 22.236C43.3053 22.236 43.6973 22.614 43.6973 23.146C43.6973 23.692 43.3053 24.084 42.7733 24.084ZM48.4099 24.112C46.0579 24.112 44.5319 22.152 44.5319 19.45C44.5319 16.748 46.0579 14.788 48.4099 14.788C50.7759 14.788 52.3439 16.748 52.3439 19.45C52.3439 22.152 50.7759 24.112 48.4099 24.112ZM48.4099 22.348C49.5439 22.348 50.4819 21.34 50.4819 19.45C50.4819 17.546 49.5439 16.594 48.4099 16.594C47.2899 16.594 46.3379 17.546 46.3379 19.45C46.3379 21.34 47.2899 22.348 48.4099 22.348ZM57.3377 24.112C54.9857 24.112 53.4597 22.152 53.4597 19.45C53.4597 16.748 54.9857 14.788 57.3377 14.788C59.7037 14.788 61.2717 16.748 61.2717 19.45C61.2717 22.152 59.7037 24.112 57.3377 24.112ZM57.3377 22.348C58.4717 22.348 59.4097 21.34 59.4097 19.45C59.4097 17.546 58.4717 16.594 57.3377 16.594C56.2177 16.594 55.2657 17.546 55.2657 19.45C55.2657 21.34 56.2177 22.348 57.3377 22.348Z" fill="#3C4242"/>
</svg>
