<svg width="83" height="37" viewBox="0 0 83 37" fill="none" xmlns="http://www.w3.org/2000/svg">
<rect x="-6.10352e-05" width="82.305" height="36.58" rx="8" fill="#F6F6F6"/>
<path d="M19.6083 24.7V23.72C18.2503 23.51 17.1723 22.81 16.8223 21.788L18.3343 20.836C18.5303 21.326 19.5243 22.096 20.5323 22.096C21.3723 22.096 21.8203 21.858 21.8203 21.298C21.8203 20.584 20.7423 20.402 20.0983 20.192C19.4263 19.982 17.2843 19.464 17.2843 17.644C17.2843 16.286 18.2923 15.502 19.6083 15.278V14.312H21.3023V15.278C22.5483 15.502 23.6123 16.188 23.9763 16.958L22.5483 17.882C22.2963 17.42 21.3583 16.818 20.4763 16.818C19.7063 16.818 19.3563 17.112 19.3563 17.532C19.3563 18.246 20.3923 18.456 21.0643 18.68C21.7363 18.904 23.8783 19.436 23.8783 21.214C23.8783 22.67 22.8703 23.538 21.3023 23.748V24.7H19.6083ZM27.0436 24V16.552H25.0696V14.9H28.8496V24H27.0436ZM33.2968 24.112C31.9528 24.112 30.6648 23.524 30.1048 22.712L31.2388 21.494C31.5888 21.914 32.3728 22.348 33.2968 22.348C34.3328 22.348 35.0748 21.83 35.0748 20.948C35.0748 20.038 34.3328 19.506 33.2968 19.506C32.7788 19.506 32.3308 19.562 31.7008 19.758L31.7148 18.456L34.1088 16.552H30.7488V14.9H36.6428V16.44L34.5988 18.204C35.7608 18.484 36.8808 19.268 36.8808 20.948C36.8808 23.202 35.0748 24.112 33.2968 24.112ZM41.1171 24.112C39.7731 24.112 38.4851 23.524 37.9251 22.712L39.0591 21.494C39.4091 21.914 40.1931 22.348 41.1171 22.348C42.1531 22.348 42.8951 21.83 42.8951 20.948C42.8951 20.038 42.1531 19.506 41.1171 19.506C40.5991 19.506 40.1511 19.562 39.5211 19.758L39.5351 18.456L41.9291 16.552H38.5691V14.9H44.4631V16.44L42.4191 18.204C43.5811 18.484 44.7011 19.268 44.7011 20.948C44.7011 23.202 42.8951 24.112 41.1171 24.112ZM46.6834 24.084C46.1374 24.084 45.7454 23.692 45.7454 23.146C45.7454 22.614 46.1374 22.236 46.6834 22.236C47.2154 22.236 47.6074 22.614 47.6074 23.146C47.6074 23.692 47.2154 24.084 46.6834 24.084ZM52.3201 24.112C49.9681 24.112 48.4421 22.152 48.4421 19.45C48.4421 16.748 49.9681 14.788 52.3201 14.788C54.6861 14.788 56.2541 16.748 56.2541 19.45C56.2541 22.152 54.6861 24.112 52.3201 24.112ZM52.3201 22.348C53.4541 22.348 54.3921 21.34 54.3921 19.45C54.3921 17.546 53.4541 16.594 52.3201 16.594C51.2001 16.594 50.2481 17.546 50.2481 19.45C50.2481 21.34 51.2001 22.348 52.3201 22.348ZM61.2478 24.112C58.8958 24.112 57.3698 22.152 57.3698 19.45C57.3698 16.748 58.8958 14.788 61.2478 14.788C63.6138 14.788 65.1818 16.748 65.1818 19.45C65.1818 22.152 63.6138 24.112 61.2478 24.112ZM61.2478 22.348C62.3818 22.348 63.3198 21.34 63.3198 19.45C63.3198 17.546 62.3818 16.594 61.2478 16.594C60.1278 16.594 59.1758 17.546 59.1758 19.45C59.1758 21.34 60.1278 22.348 61.2478 22.348Z" fill="#3C4242"/>
</svg>
