<svg width="83" height="37" viewBox="0 0 83 37" fill="none" xmlns="http://www.w3.org/2000/svg">
<rect width="82.305" height="36.58" rx="8" fill="#F6F6F6"/>
<path d="M15.5351 24.7V23.72C14.1771 23.51 13.0991 22.81 12.7491 21.788L14.2611 20.836C14.4571 21.326 15.4511 22.096 16.4591 22.096C17.2991 22.096 17.7471 21.858 17.7471 21.298C17.7471 20.584 16.6691 20.402 16.0251 20.192C15.3531 19.982 13.2111 19.464 13.2111 17.644C13.2111 16.286 14.2191 15.502 15.5351 15.278V14.312H17.2291V15.278C18.4751 15.502 19.5391 16.188 19.9031 16.958L18.4751 17.882C18.2231 17.42 17.2851 16.818 16.4031 16.818C15.6331 16.818 15.2831 17.112 15.2831 17.532C15.2831 18.246 16.3191 18.456 16.9911 18.68C17.6631 18.904 19.8051 19.436 19.8051 21.214C19.8051 22.67 18.7971 23.538 17.2291 23.748V24.7H15.5351ZM24.3565 24.112C23.0125 24.112 21.7245 23.524 21.1645 22.712L22.2985 21.494C22.6485 21.914 23.4325 22.348 24.3565 22.348C25.3925 22.348 26.1345 21.83 26.1345 20.948C26.1345 20.038 25.3925 19.506 24.3565 19.506C23.8385 19.506 23.3905 19.562 22.7605 19.758L22.7745 18.456L25.1685 16.552H21.8085V14.9H27.7025V16.44L25.6585 18.204C26.8205 18.484 27.9405 19.268 27.9405 20.948C27.9405 23.202 26.1345 24.112 24.3565 24.112ZM32.4708 24.14C30.2308 24.14 29.1248 22.95 29.1248 21.368C29.1248 20.556 29.5588 19.744 30.4408 19.268C29.6428 18.778 29.2928 17.994 29.2928 17.252C29.2928 16.09 30.2308 14.76 32.4708 14.76C34.6828 14.76 35.6208 16.09 35.6208 17.252C35.6208 17.994 35.2708 18.778 34.4728 19.268C35.3408 19.758 35.7748 20.556 35.7748 21.368C35.7748 22.95 34.6828 24.14 32.4708 24.14ZM32.4708 18.652C33.5068 18.652 33.9548 18.036 33.9548 17.378C33.9548 16.748 33.5068 16.09 32.4708 16.09C31.4068 16.09 30.9448 16.748 30.9448 17.378C30.9448 18.036 31.4068 18.652 32.4708 18.652ZM32.4708 22.656C33.5068 22.656 34.0388 22.04 34.0388 21.284C34.0388 20.542 33.5068 19.912 32.4708 19.912C31.4068 19.912 30.8608 20.542 30.8608 21.284C30.8608 21.998 31.4068 22.656 32.4708 22.656ZM37.7568 24.084C37.2108 24.084 36.8188 23.692 36.8188 23.146C36.8188 22.614 37.2108 22.236 37.7568 22.236C38.2888 22.236 38.6808 22.614 38.6808 23.146C38.6808 23.692 38.2888 24.084 37.7568 24.084ZM43.3934 24.112C41.0414 24.112 39.5154 22.152 39.5154 19.45C39.5154 16.748 41.0414 14.788 43.3934 14.788C45.7594 14.788 47.3274 16.748 47.3274 19.45C47.3274 22.152 45.7594 24.112 43.3934 24.112ZM43.3934 22.348C44.5274 22.348 45.4654 21.34 45.4654 19.45C45.4654 17.546 44.5274 16.594 43.3934 16.594C42.2734 16.594 41.3214 17.546 41.3214 19.45C41.3214 21.34 42.2734 22.348 43.3934 22.348ZM52.3211 24.112C49.9691 24.112 48.4431 22.152 48.4431 19.45C48.4431 16.748 49.9691 14.788 52.3211 14.788C54.6871 14.788 56.2551 16.748 56.2551 19.45C56.2551 22.152 54.6871 24.112 52.3211 24.112ZM52.3211 22.348C53.4551 22.348 54.3931 21.34 54.3931 19.45C54.3931 17.546 53.4551 16.594 52.3211 16.594C51.2011 16.594 50.2491 17.546 50.2491 19.45C50.2491 21.34 51.2011 22.348 52.3211 22.348Z" fill="#3C4242"/>
</svg>
