<svg width="83" height="37" viewBox="0 0 83 37" fill="none" xmlns="http://www.w3.org/2000/svg">
<rect width="82.305" height="36.58" rx="8" fill="#F6F6F6"/>
<path d="M15.6367 24.7V23.72C14.2787 23.51 13.2007 22.81 12.8507 21.788L14.3627 20.836C14.5587 21.326 15.5527 22.096 16.5607 22.096C17.4007 22.096 17.8487 21.858 17.8487 21.298C17.8487 20.584 16.7707 20.402 16.1267 20.192C15.4547 19.982 13.3127 19.464 13.3127 17.644C13.3127 16.286 14.3207 15.502 15.6367 15.278V14.312H17.3307V15.278C18.5767 15.502 19.6407 16.188 20.0047 16.958L18.5767 17.882C18.3247 17.42 17.3867 16.818 16.5047 16.818C15.7347 16.818 15.3847 17.112 15.3847 17.532C15.3847 18.246 16.4207 18.456 17.0927 18.68C17.7647 18.904 19.9067 19.436 19.9067 21.214C19.9067 22.67 18.8987 23.538 17.3307 23.748V24.7H15.6367ZM21.602 24L25.032 16.552H21.238V14.9H27.132V16.104L23.492 24H21.602ZM29.5892 24L31.2132 21.424C29.4072 21.34 28.1052 19.926 28.1052 18.106C28.1052 16.258 29.4912 14.788 31.3812 14.788C33.2712 14.788 34.6712 16.258 34.6712 18.106C34.6712 18.904 34.3632 19.59 33.9852 20.178L31.5352 24H29.5892ZM31.3812 19.744C31.9132 19.744 32.3612 19.52 32.6412 19.142L32.6552 19.114C32.8512 18.848 32.9632 18.498 32.9632 18.106C32.9632 17.168 32.3052 16.496 31.3812 16.496C30.4712 16.496 29.8132 17.168 29.8132 18.106C29.8132 19.058 30.4712 19.744 31.3812 19.744ZM36.6552 24.084C36.1092 24.084 35.7172 23.692 35.7172 23.146C35.7172 22.614 36.1092 22.236 36.6552 22.236C37.1872 22.236 37.5792 22.614 37.5792 23.146C37.5792 23.692 37.1872 24.084 36.6552 24.084ZM42.2918 24.112C39.9398 24.112 38.4138 22.152 38.4138 19.45C38.4138 16.748 39.9398 14.788 42.2918 14.788C44.6578 14.788 46.2258 16.748 46.2258 19.45C46.2258 22.152 44.6578 24.112 42.2918 24.112ZM42.2918 22.348C43.4258 22.348 44.3638 21.34 44.3638 19.45C44.3638 17.546 43.4258 16.594 42.2918 16.594C41.1718 16.594 40.2198 17.546 40.2198 19.45C40.2198 21.34 41.1718 22.348 42.2918 22.348ZM51.2196 24.112C48.8676 24.112 47.3416 22.152 47.3416 19.45C47.3416 16.748 48.8676 14.788 51.2196 14.788C53.5856 14.788 55.1536 16.748 55.1536 19.45C55.1536 22.152 53.5856 24.112 51.2196 24.112ZM51.2196 22.348C52.3536 22.348 53.2916 21.34 53.2916 19.45C53.2916 17.546 52.3536 16.594 51.2196 16.594C50.0996 16.594 49.1476 17.546 49.1476 19.45C49.1476 21.34 50.0996 22.348 51.2196 22.348Z" fill="#3C4242"/>
</svg>
