<svg width="80.000000" height="46.000000" viewBox="0 0 80 46" fill="none" xmlns="http://www.w3.org/2000/svg" xmlns:xlink="http://www.w3.org/1999/xlink">
	<desc>
			Created with Pixso.
	</desc>
	<defs/>
	<rect id="Rectangle 743" rx="8.000000" width="80.000000" height="46.000000" fill="#FFFFFF" fill-opacity="1.000000"/>
	<path id="Vector" d="M38.8538 22.0879L38.8538 26.9406L37.3035 26.9406L37.3035 14.9567L41.4148 14.9567C41.9055 14.9464 42.3936 15.0328 42.8503 15.2109C43.3074 15.389 43.7244 15.6552 44.0771 15.994C44.4336 16.3124 44.717 16.7028 44.9089 17.139C45.1008 17.5753 45.1963 18.0472 45.1892 18.5232C45.1995 19.0017 45.1052 19.4767 44.9133 19.9158C44.7214 20.3547 44.436 20.7473 44.0771 21.0667C43.3582 21.7474 42.4707 22.0875 41.4148 22.0869L38.8538 22.0869L38.8538 22.0879ZM38.8538 16.432L38.8538 20.6154L41.4534 20.6154C41.7383 20.6237 42.022 20.573 42.2861 20.4663C42.5503 20.3596 42.7891 20.1993 42.9871 19.9957C43.1843 19.8054 43.3411 19.5778 43.448 19.3262C43.5549 19.0747 43.6101 18.8043 43.6101 18.5314C43.6101 18.2583 43.5549 17.988 43.448 17.7365C43.3411 17.485 43.1843 17.2572 42.9871 17.0669C42.7915 16.859 42.5535 16.6948 42.2891 16.5852C42.0247 16.4756 41.7397 16.4231 41.4534 16.431L38.8538 16.431L38.8538 16.432Z" fill="#5F6368" fill-opacity="1.000000" fill-rule="nonzero"/>
	<path id="Vector" d="M48.7612 18.4735C49.9072 18.4735 50.8115 18.7776 51.4746 19.3857C52.1377 19.9939 52.469 20.8276 52.4683 21.8871L52.4683 26.9406L50.9856 26.9406L50.9856 25.8027L50.9182 25.8027C50.2761 26.7397 49.4224 27.2083 48.3569 27.2083C47.4473 27.2083 46.6863 26.9406 46.074 26.405C45.78 26.1593 45.5452 25.8516 45.3862 25.5042C45.2273 25.1567 45.1484 24.7786 45.1555 24.3971C45.1555 23.5486 45.4783 22.8739 46.124 22.3728C46.7698 21.8718 47.6318 21.6206 48.7102 21.6194C49.6309 21.6194 50.3889 21.7867 50.9846 22.1213L50.9846 21.7695C50.9863 21.5094 50.9297 21.2522 50.8191 21.0166C50.7083 20.7809 50.5461 20.5726 50.3442 20.4069C49.9343 20.0397 49.4001 19.8392 48.8479 19.8456C47.9822 19.8456 47.2969 20.2084 46.7922 20.9338L45.427 20.08C46.178 19.009 47.2896 18.4735 48.7612 18.4735ZM46.7556 24.4305C46.7546 24.6265 46.8008 24.8198 46.8901 24.9945C46.9797 25.1691 47.1099 25.3199 47.2698 25.4346C47.6128 25.7024 48.0383 25.8442 48.4744 25.8362C49.1287 25.8351 49.7556 25.5765 50.218 25.1171C50.7317 24.6371 50.9883 24.0739 50.9883 23.4275C50.5051 23.045 49.8311 22.8538 48.9663 22.8538C48.3367 22.8538 47.8115 23.0045 47.3911 23.306C46.9666 23.6121 46.7556 23.984 46.7556 24.4305Z" fill="#5F6368" fill-opacity="1.000000" fill-rule="nonzero"/>
	<path id="Vector" d="M60.98 18.7412L55.8037 30.5549L54.2036 30.5549L56.1243 26.4213L52.7207 18.7412L54.4058 18.7412L56.8657 24.6313L56.8994 24.6313L59.2922 18.7412L60.98 18.7412Z" fill="#5F6368" fill-opacity="1.000000" fill-rule="nonzero"/>
	<path id="Vector" d="M32.5894 21.0419C32.5898 20.5726 32.5498 20.1044 32.47 19.642L25.9321 19.642L25.9321 22.2935L29.6768 22.2935C29.6001 22.7169 29.4377 23.1206 29.2 23.4802C28.9619 23.8397 28.6531 24.1477 28.292 24.3856L28.292 26.1067L30.5269 26.1067C31.8354 24.9087 32.5894 23.1368 32.5894 21.0419Z" fill="#4285F4" fill-opacity="1.000000" fill-rule="nonzero"/>
	<path id="Vector" d="M25.9324 27.7695C27.8032 27.7695 29.3784 27.1595 30.5271 26.1077L28.2922 24.3866C27.6702 24.8054 26.8691 25.0444 25.9324 25.0444C24.124 25.0444 22.5894 23.8339 22.0405 22.2026L19.7383 22.2026L19.7383 23.9763C20.3152 25.1166 21.2 26.0751 22.2937 26.745C23.3877 27.4148 24.6472 27.7695 25.9324 27.7695Z" fill="#34A853" fill-opacity="1.000000" fill-rule="nonzero"/>
	<path id="Vector" d="M22.0403 22.2026C21.7502 21.3479 21.7502 20.4222 22.0403 19.5674L22.0403 17.7937L19.7383 17.7937C19.2527 18.7529 19 19.8115 19 20.885C19 21.9586 19.2527 23.0172 19.7383 23.9764L22.0403 22.2026Z" fill="#FBBC04" fill-opacity="1.000000" fill-rule="nonzero"/>
	<path id="Vector" d="M25.9324 16.7256C26.9209 16.7096 27.8762 17.0804 28.5918 17.7583L30.5703 15.7933C29.3157 14.623 27.6536 13.9805 25.9324 14.0005C24.6472 14.0005 23.3877 14.3552 22.2937 15.025C21.2 15.6948 20.3152 16.6534 19.7383 17.7937L22.0405 19.5674C22.5894 17.9362 24.124 16.7256 25.9324 16.7256Z" fill="#EA4335" fill-opacity="1.000000" fill-rule="nonzero"/>
</svg>
