<svg width="80.000000" height="46.000000" viewBox="0 0 80 46" fill="none" xmlns="http://www.w3.org/2000/svg" xmlns:xlink="http://www.w3.org/1999/xlink">
	<desc>
			Created with Pixso.
	</desc>
	<defs/>
	<rect id="Rectangle 746" rx="8.000000" width="80.000000" height="46.000000" fill="#FFFFFF" fill-opacity="1.000000"/>
	<path id="Vector" d="M16.0005 21.6599C15.8904 21.9352 15.8352 22.2289 15.7617 22.5225C15.5784 23.4034 15.4314 24.3394 15.2295 25.2202C14.8259 25.2202 14.4038 25.2202 14 25.2202C14.4587 22.2472 15.303 19.3475 15.6699 16.1543C16.0737 16.1543 16.4775 16.1543 16.863 16.1543C16.8079 16.4479 16.7344 16.7233 16.6978 17.0168C16.6978 17.0352 16.6611 17.0536 16.6611 17.0902C17.2117 16.3745 18.0559 15.879 19.3955 16.0259C20.7168 16.1543 21.4326 17.2003 21.4878 18.4299C21.6162 20.7791 20.3682 22.9078 17.7988 22.7244C16.9546 22.6693 16.3123 22.3573 16.0005 21.6599ZM17.7256 17.2003C16.6428 17.751 15.5967 20.2836 16.8262 21.3663C17.6338 22.082 18.8999 21.6967 19.4321 21.036C20.0378 20.2836 20.5884 18.1179 19.6709 17.3472C19.3589 17.0902 18.8633 16.9985 18.4045 17.0536C18.0742 17.0719 17.9089 17.1086 17.7256 17.2003Z" fill="#030000" fill-opacity="1.000000" fill-rule="evenodd"/>
	<path id="Vector" d="M27.1587 22.5958C26.7732 22.5958 26.3877 22.5958 25.9841 22.5958C26.0391 22.2288 26.1125 21.8801 26.186 21.5314C25.8372 22.0453 25.2317 22.6326 24.3506 22.7242C23.0845 22.8528 21.9282 22.2104 21.8181 21.1643C21.7815 20.8157 21.7998 20.2467 22.0935 19.8063C22.8274 18.6501 24.7361 18.5767 26.6265 18.6317C27.1953 16.5396 24.1489 16.8516 23.1028 17.5306C23.1577 17.1268 23.2495 16.7415 23.3047 16.3378C25.1948 15.7505 27.7458 15.8973 27.8926 17.9343C27.9478 18.7418 27.7092 19.531 27.5623 20.3018C27.4155 21.0542 27.2688 21.7883 27.1587 22.5958ZM23.1577 20.9258C23.1946 21.458 23.7817 21.7516 24.259 21.7516C25.562 21.77 26.186 20.6321 26.3877 19.5127C24.9197 19.4392 23.0662 19.6228 23.1577 20.9258Z" fill="#030000" fill-opacity="1.000000" fill-rule="evenodd"/>
	<path id="Vector" d="M29.9849 16.1726C30.26 17.8794 30.5903 19.531 30.8474 21.2745C31.8201 19.6045 32.7192 17.861 33.6736 16.1726C34.114 16.1726 34.5544 16.1726 35.0134 16.1726C33.8389 18.3015 32.4624 20.6322 31.1411 22.8711C30.7373 23.5685 30.3335 24.5045 29.7463 24.9633C29.2324 25.3671 28.2415 25.4587 27.4155 25.2936C27.4338 24.9265 27.5623 24.6512 27.5808 24.3026C27.7458 24.2843 27.9478 24.3944 28.1497 24.3944C29.0488 24.3944 29.5444 23.5685 29.8748 22.9261C29.4893 20.7056 29.0671 18.5033 28.6819 16.2644C28.645 16.2277 28.6636 16.2094 28.6819 16.1726C29.1223 16.1726 29.5627 16.1726 29.9849 16.1726Z" fill="#030000" fill-opacity="1.000000" fill-rule="evenodd"/>
	<path id="Vector" d="M35.5457 26.358C35.2703 27.918 34.9216 29.3861 34.6462 30.946C33.7837 30.946 32.9211 30.946 32.0403 30.946C32.4441 29.0375 32.7927 27.1472 33.1782 25.2568C33.5635 23.385 34.0222 21.5131 34.2424 19.531C34.9399 19.476 35.876 19.476 36.5732 19.531C36.5549 19.9714 36.4448 20.3385 36.4082 20.7606C37.0872 20.0815 37.8213 19.1824 39.3811 19.3291C40.8677 19.476 41.6936 20.7239 41.8037 22.3022C42.0054 25.0183 40.6841 27.6793 38.2983 27.8629C36.8118 27.973 36.1145 27.2939 35.5457 26.358ZM36.5916 22.3022C35.9861 23.1648 35.7842 24.8164 36.5549 25.4587C37.032 25.8625 37.9128 25.6606 38.3167 25.3303C38.8306 24.9082 39.1975 24.1007 39.1792 23.0913C39.1609 22.1737 38.7571 21.403 37.7844 21.5314C37.2156 21.6049 36.8669 21.8984 36.5916 22.3022Z" fill="#009651" fill-opacity="1.000000" fill-rule="evenodd"/>
	<path id="Vector" d="M48.9424 27.6978C48.2634 27.6794 47.4927 27.7345 46.8687 27.661C46.9421 27.2941 46.9421 26.8352 46.9971 26.4681C46.7954 26.67 46.6484 26.9637 46.3916 27.2023C45.5474 27.973 43.657 28.1382 42.7212 27.3674C41.7117 26.5232 41.877 24.5045 42.7212 23.642C43.6938 22.6326 45.5291 22.3756 47.4192 22.5775C47.6028 21.8068 47.0889 21.3296 46.4465 21.2378C45.5107 21.1094 44.2627 21.5131 43.7122 21.8434C43.8223 21.1827 43.8589 20.467 43.9873 19.8064C44.6482 19.5677 45.272 19.3843 46.0613 19.3475C48.2451 19.2007 49.75 19.9348 49.8967 21.8068C49.9702 22.7977 49.6765 23.8254 49.4563 24.7981C49.2544 25.7524 49.1077 26.7251 48.9424 27.6978ZM46.3181 24.0273C45.5291 24.0457 44.6665 24.3026 44.4829 24.8899C44.3362 25.4038 44.7031 25.8809 45.0886 25.9543C46.2998 26.2113 47.1257 25.0183 47.2173 24.0641C46.9421 24.009 46.5383 24.0273 46.3181 24.0273Z" fill="#009651" fill-opacity="1.000000" fill-rule="evenodd"/>
	<path id="Vector" d="M56.9441 19.8063C56.8157 20.4669 56.5771 21.0176 56.4485 21.6782C55.8062 21.458 55.0354 21.1277 54.0261 21.2378C53.6223 21.2928 53.2185 21.4946 53.2185 21.8984C53.2371 22.3939 53.9895 22.5774 54.4482 22.761C55.0906 23.0363 55.8613 23.4033 56.1733 23.9539C56.7056 24.9082 56.1733 26.303 55.6042 26.8903C55.1272 27.3857 54.228 27.7894 53.3103 27.8629C52.1174 27.9546 50.8696 27.7344 49.8418 27.4591C49.9885 26.78 50.1538 26.1561 50.3374 25.5321C51.0164 25.8074 51.7871 26.0643 52.8333 25.9727C53.3286 25.9175 53.8792 25.7523 53.8059 25.1652C53.7507 24.688 53.0352 24.5228 52.5029 24.3025C51.512 23.8988 50.7778 23.3849 50.7778 22.0453C50.7778 19.2924 54.595 18.8336 56.9441 19.8063Z" fill="#009651" fill-opacity="1.000000" fill-rule="evenodd"/>
	<path id="Vector" d="M63.4407 19.8063C63.2939 20.4486 63.092 21.0542 62.9084 21.6782C62.303 21.4397 61.5137 21.1277 60.5044 21.2378C60.1006 21.2745 59.6968 21.4763 59.6968 21.8984C59.7153 22.4124 60.6328 22.6876 61.0549 22.8711C61.9175 23.2382 62.7434 23.642 62.8535 24.6329C62.9636 25.6056 62.5598 26.3948 61.991 26.9269C61.4587 27.4408 60.6694 27.7894 59.7886 27.8629C58.5774 27.9547 57.4028 27.7344 56.3201 27.4591C56.4302 26.7617 56.6504 26.1929 56.7788 25.5322C57.2744 25.679 57.7515 25.9176 58.3389 25.9727C59.1646 26.046 60.2842 25.991 60.2659 25.2753C60.2473 24.5045 58.6509 24.3392 58.0269 23.8438C57.3479 23.3115 56.9258 22.0085 57.458 20.9441C58.3389 19.2925 61.3669 18.9254 63.4407 19.8063Z" fill="#009651" fill-opacity="1.000000" fill-rule="evenodd"/>
	<path id="Vector" d="M64.4133 20.6505L64.083 20.6505L64.1013 20.5221L64.9089 20.5221L64.8904 20.6505L64.5601 20.6505L64.3767 21.6599L64.2297 21.6599L64.4133 20.6505Z" fill="#009651" fill-opacity="1.000000" fill-rule="nonzero"/>
	<path id="Vector" d="M65.7712 21.6599L65.8447 21.0543C65.863 20.9442 65.8813 20.7791 65.8997 20.6689C65.8447 20.7791 65.7896 20.9258 65.7163 21.036L65.386 21.6599L65.2759 21.6599L65.1841 21.0543C65.1658 20.9259 65.1472 20.7974 65.1472 20.6689C65.1289 20.7791 65.0923 20.9442 65.0557 21.0543L64.9087 21.6599L64.7803 21.6599L65.074 20.5221L65.2573 20.5221L65.3491 21.1644C65.3674 21.2562 65.3674 21.3663 65.3674 21.458C65.4043 21.3663 65.4592 21.2745 65.4961 21.1827L65.8447 20.5221L66.0283 20.5221L65.8813 21.6599L65.7712 21.6599Z" fill="#009651" fill-opacity="1.000000" fill-rule="nonzero"/>
</svg>
