<svg width="80.000000" height="46.000000" viewBox="0 0 80 46" fill="none" xmlns="http://www.w3.org/2000/svg" xmlns:xlink="http://www.w3.org/1999/xlink">
	<desc>
			Created with Pixso.
	</desc>
	<defs/>
	<rect id="Rectangle 745" rx="8.000000" width="80.000000" height="46.000000" fill="#FFFFFF" fill-opacity="1.000000"/>
	<path id="XMLID 30" d="M33.7009 21.7031C33.5601 22.7593 32.7151 22.7593 31.9407 22.7593L31.5181 22.7593L31.8701 20.7174C31.8701 20.5765 32.011 20.5061 32.1519 20.5061L32.363 20.5061C32.9263 20.5061 33.4192 20.5061 33.7009 20.7878C33.7009 21.0695 33.7009 21.3511 33.7009 21.7031ZM33.3489 18.8867L30.321 18.8867C30.1099 18.8867 29.969 19.0276 29.8987 19.2388L28.7017 26.9839C28.7017 27.1248 28.772 27.2656 28.9834 27.2656L30.3916 27.2656C30.6028 27.2656 30.7437 27.1248 30.814 26.9136L31.166 24.8013C31.166 24.59 31.3772 24.4492 31.5886 24.4492L32.5742 24.4492C34.5457 24.4492 35.6724 23.4634 36.0244 21.5624C36.1653 20.7174 36.0244 20.0837 35.6724 19.5908C35.1091 19.1683 34.3345 18.8867 33.3489 18.8867Z" fill="#263577" fill-opacity="1.000000" fill-rule="nonzero"/>
	<path id="XMLID 27" d="M40.3191 24.5197C40.1782 25.3645 39.5444 25.9279 38.6997 25.9279C38.2771 25.9279 37.925 25.787 37.7139 25.5054C37.5027 25.2238 37.4321 24.8717 37.5027 24.5197C37.6433 23.6747 38.2771 23.1115 39.1221 23.1115C39.5444 23.1115 39.8965 23.2522 40.1079 23.5339C40.2485 23.7451 40.3894 24.0972 40.3191 24.5197ZM42.2905 21.7032L40.8823 21.7032C40.7415 21.7032 40.6711 21.7736 40.6006 21.9144L40.5303 22.3369L40.46 22.196C40.1782 21.7736 39.4741 21.5624 38.77 21.5624C37.1506 21.5624 35.8127 22.7594 35.531 24.4492C35.3904 25.2942 35.6016 26.0686 36.0945 26.632C36.5168 27.1249 37.1506 27.3361 37.925 27.3361C39.1924 27.3361 39.8965 26.4911 39.8965 26.4911L39.8262 26.9136C39.8262 27.0544 39.8965 27.1952 40.1079 27.1952L41.3752 27.1952C41.5864 27.1952 41.7273 27.0544 41.7976 26.8431L42.5723 21.9144C42.5723 21.844 42.5017 21.7032 42.2905 21.7032Z" fill="#263577" fill-opacity="1.000000" fill-rule="nonzero"/>
	<path id="XMLID 26" d="M49.9656 21.7032L48.4868 21.7032C48.3462 21.7032 48.2053 21.7737 48.1348 21.9144L46.1633 24.8717L45.3184 22.0553C45.248 21.8441 45.1072 21.7737 44.896 21.7737L43.4878 21.7737C43.3469 21.7737 43.2061 21.9144 43.2766 22.1257L44.896 26.7728L43.4172 28.8851C43.2766 29.026 43.4175 29.3076 43.6287 29.3076L45.1072 29.3076C45.248 29.3076 45.3889 29.2372 45.4592 29.0963L50.2471 22.1257C50.3176 21.9144 50.1768 21.7032 49.9656 21.7032Z" fill="#263577" fill-opacity="1.000000" fill-rule="nonzero"/>
	<path id="XMLID 21" d="M55.1055 21.7031C54.9646 22.7593 54.1196 22.7593 53.3452 22.7593L52.9226 22.7593L53.2747 20.7174C53.2747 20.5765 53.4155 20.5061 53.5564 20.5061L53.7676 20.5061C54.3308 20.5061 54.8237 20.5061 55.1055 20.7878C55.1758 21.0695 55.1758 21.3511 55.1055 21.7031ZM54.7534 18.8867L51.7256 18.8867C51.5144 18.8867 51.3735 19.0276 51.3032 19.2388L50.1062 26.9839C50.1062 27.1248 50.1765 27.2656 50.3879 27.2656L51.9368 27.2656C52.0776 27.2656 52.2185 27.1952 52.2185 26.9839L52.5706 24.8013C52.5706 24.59 52.7817 24.4492 52.9932 24.4492L53.9788 24.4492C55.9502 24.4492 57.0769 23.4634 57.429 21.5624C57.5698 20.7174 57.429 20.0837 57.0769 19.5908C56.584 19.1683 55.8096 18.8867 54.7534 18.8867Z" fill="#2199D6" fill-opacity="1.000000" fill-rule="nonzero"/>
	<path id="XMLID 13" d="M61.7947 24.5197C61.6538 25.3645 61.02 25.9279 60.1753 25.9279C59.7527 25.9279 59.4006 25.787 59.1895 25.5054C58.9783 25.2238 58.9077 24.8717 58.9783 24.5197C59.1189 23.6747 59.7527 23.1115 60.5977 23.1115C61.02 23.1115 61.3721 23.2522 61.5835 23.5339C61.7241 23.7451 61.865 24.0972 61.7947 24.5197ZM63.7661 21.7032L62.3579 21.7032C62.217 21.7032 62.1467 21.7736 62.0762 21.9144L62.0059 22.3369L61.9355 22.196C61.6538 21.7736 60.9497 21.5624 60.2456 21.5624C58.6262 21.5624 57.2883 22.7594 57.0066 24.4492C56.866 25.2942 57.0771 26.0686 57.5701 26.632C57.9924 27.1249 58.6262 27.3361 59.4006 27.3361C60.668 27.3361 61.3721 26.4911 61.3721 26.4911L61.3018 26.9136C61.3018 27.0544 61.3721 27.1952 61.5835 27.1952L62.8508 27.1952C63.062 27.1952 63.2029 27.0544 63.2732 26.8431L64.0479 21.9144C64.0479 21.844 63.907 21.7032 63.7661 21.7032Z" fill="#2199D6" fill-opacity="1.000000" fill-rule="nonzero"/>
	<path id="XMLID 12" d="M65.4558 19.0979L64.1885 26.9839C64.1885 27.1248 64.2588 27.2656 64.4702 27.2656L65.7375 27.2656C65.9487 27.2656 66.0896 27.1248 66.1599 26.9136L67.3569 19.1683C67.3569 19.0276 67.2866 18.8867 67.0754 18.8867L65.667 18.8867C65.5967 18.8867 65.5264 19.0276 65.4558 19.0979Z" fill="#2199D6" fill-opacity="1.000000" fill-rule="nonzero"/>
	<path id="XMLID 10" d="M16.1682 28.7444L16.3794 27.2657L15.8865 27.2657L13.4221 27.2657L15.1121 16.4929C15.1121 16.4929 15.1121 16.4225 15.1824 16.4225L15.2527 16.4225L19.407 16.4225C20.7449 16.4225 21.7305 16.7041 22.2234 17.2675C22.4346 17.5491 22.5754 17.8307 22.646 18.1123C22.7163 18.4644 22.7163 18.8164 22.646 19.3093L22.646 19.5909L22.8572 19.7318C23.0684 19.8022 23.2092 19.943 23.3501 20.0839C23.5613 20.295 23.7021 20.5767 23.7021 20.9287C23.7725 21.2808 23.7725 21.7032 23.6316 22.1962C23.4907 22.7594 23.3501 23.1819 23.1387 23.6044C22.9275 23.9564 22.646 24.238 22.3643 24.5197C22.0825 24.731 21.6602 24.8717 21.3081 25.0126C20.8857 25.083 20.4631 25.1534 19.9702 25.1534L19.6182 25.1534C19.407 25.1534 19.1958 25.2238 18.9846 25.3646C18.8438 25.5055 18.7029 25.7167 18.6326 25.928L18.6326 26.0687L18.21 28.674L18.21 28.7444L18.21 28.8147C18.21 28.8147 18.21 28.8147 18.1396 28.8147L16.1682 28.8147L16.1682 28.7444Z" fill="#263577" fill-opacity="1.000000" fill-rule="nonzero"/>
	<path id="XMLID 8" d="M23.1389 19.3092C23.1389 19.3796 23.1389 19.4501 23.0686 19.5204C22.5054 22.3369 20.6746 23.2522 18.2805 23.2522L17.0837 23.2522C16.802 23.2522 16.5203 23.4634 16.5203 23.7451L15.8867 27.6881L15.7458 28.8147C15.7458 29.0259 15.8867 29.1667 16.0276 29.1667L18.2102 29.1667C18.4919 29.1667 18.7031 28.9554 18.7031 28.7443L18.7031 28.6034L19.1255 26.0686L19.1255 25.9279C19.196 25.6461 19.4072 25.5054 19.6184 25.5054L19.9705 25.5054C22.0828 25.5054 23.7021 24.6604 24.1248 22.196C24.3359 21.1399 24.1951 20.2949 23.7021 19.7317C23.5615 19.5908 23.3501 19.4501 23.1389 19.3092Z" fill="#2199D6" fill-opacity="1.000000" fill-rule="nonzero"/>
	<path id="XMLID 6" d="M22.5757 19.0979C22.5051 19.0979 22.4348 19.0276 22.2939 19.0276C22.2236 19.0276 22.0828 18.9572 22.0122 18.9572C21.6602 18.8867 21.3081 18.8867 20.9561 18.8867L17.7173 18.8867C17.6467 18.8867 17.5764 18.8867 17.5061 18.9572C17.3652 19.0276 17.2244 19.1683 17.2244 19.3092L16.5203 23.6747L16.5203 23.8154C16.5906 23.5338 16.802 23.3226 17.0835 23.3226L18.2805 23.3226C20.6746 23.3226 22.5051 22.3368 23.0684 19.5908C23.0684 19.5204 23.0684 19.45 23.1389 19.3796C22.998 19.3092 22.8572 19.2388 22.7163 19.1683C22.646 19.0979 22.5757 19.0979 22.5757 19.0979Z" fill="#252C5E" fill-opacity="1.000000" fill-rule="nonzero"/>
	<path id="XMLID 5" d="M17.2246 19.3093C17.2246 19.1685 17.3655 19.0277 17.5063 18.9573C17.5767 18.9573 17.6472 18.8868 17.7175 18.8868L20.9563 18.8868C21.3083 18.8868 21.731 18.8868 22.0125 18.9573C22.083 18.9573 22.2239 18.9573 22.2942 19.0277C22.3645 19.0277 22.4351 19.098 22.5759 19.098C22.6462 19.098 22.6462 19.098 22.7166 19.1685C22.8574 19.2389 22.9983 19.3093 23.1392 19.3798C23.28 18.3236 23.1392 17.6194 22.5759 16.9857C21.9421 16.2816 20.8157 16 19.4075 16L15.2532 16C14.9714 16 14.6899 16.2112 14.6899 16.4929L13 27.3361C13 27.5474 13.1409 27.7585 13.3521 27.7585L15.8867 27.7585L16.5205 23.6748L17.2246 19.3093Z" fill="#263577" fill-opacity="1.000000" fill-rule="nonzero"/>
</svg>
