<svg width="80.000000" height="46.000000" viewBox="0 0 80 46" fill="none" xmlns="http://www.w3.org/2000/svg" xmlns:xlink="http://www.w3.org/1999/xlink">
	<desc>
			Created with Pixso.
	</desc>
	<defs/>
	<rect id="Rectangle 744" rx="8.000000" width="80.000000" height="46.000000" fill="#FFFFFF" fill-opacity="1.000000"/>
	<path id="Vector" d="M57.7207 17.1775L55.1785 17.1775C54.4097 17.1775 53.8186 17.4139 53.4639 18.1826L48.6157 29.2386L52.0449 29.2386C52.0449 29.2386 52.636 27.7605 52.7544 27.4058C53.1091 27.4058 56.479 27.4058 56.9521 27.4058C57.0703 27.8197 57.366 29.1794 57.366 29.1794L60.4404 29.1794L57.7207 17.1775ZM53.7002 24.9226C53.9958 24.2131 55.001 21.5526 55.001 21.5526C55.001 21.6117 55.2966 20.8431 55.4148 20.4292L55.6514 21.4935C55.6514 21.4935 56.3018 24.3905 56.4199 24.9817L53.7002 24.9817L53.7002 24.9226Z" fill="#3362AB" fill-opacity="1.000000" fill-rule="nonzero"/>
	<path id="Vector" d="M48.8523 25.2772C48.8523 27.7604 46.6055 29.4159 43.1172 29.4159C41.6392 29.4159 40.2202 29.1202 39.4517 28.7655L39.9246 26.0458L40.3386 26.2231C41.4028 26.6962 42.1123 26.8735 43.4128 26.8735C44.3589 26.8735 45.364 26.5188 45.364 25.691C45.364 25.1589 44.9502 24.8042 43.6494 24.213C42.4077 23.6218 40.7524 22.6758 40.7524 20.9613C40.7524 18.5963 43.0581 17 46.3098 17C47.5515 17 48.6157 17.2365 49.2661 17.5321L48.7932 20.1335L48.5566 19.897C47.9653 19.6605 47.1968 19.4241 46.0735 19.4241C44.8318 19.4832 44.2407 20.0153 44.2407 20.4883C44.2407 21.0204 44.9502 21.4342 46.0735 21.9663C47.9653 22.8531 48.8523 23.8583 48.8523 25.2772Z" fill="#3362AB" fill-opacity="1.000000" fill-rule="nonzero"/>
	<path id="Vector" d="M20 17.2955L20.0591 17.0591L25.1438 17.0591C25.8533 17.0591 26.3853 17.2955 26.5627 18.0642L27.686 23.3853C26.5627 20.5474 23.9612 18.2416 20 17.2955Z" fill="#F9B50B" fill-opacity="1.000000" fill-rule="nonzero"/>
	<path id="Vector" d="M34.8401 17.1774L29.6963 29.1794L26.208 29.1794L23.252 19.1284C25.3804 20.4883 27.1541 22.6167 27.8044 24.0948L28.1592 25.3364L31.3518 17.1183L34.8401 17.1183L34.8401 17.1774Z" fill="#3362AB" fill-opacity="1.000000" fill-rule="nonzero"/>
	<path id="Vector" d="M36.1997 17.1183L39.4514 17.1183L37.3821 29.1794L34.1304 29.1794L36.1997 17.1183Z" fill="#3362AB" fill-opacity="1.000000" fill-rule="nonzero"/>
</svg>
